<mxfile host="Electron" modified="2024-09-15T19:05:19.216Z" agent="Mozilla/5.0 (Windows NT 10.0; Win64; x64) AppleWebKit/537.36 (KHTML, like Gecko) draw.io/21.6.8 Chrome/114.0.5735.289 Electron/25.5.0 Safari/537.36" etag="zPJ-eZVtruSRQ12kRQxI" version="21.6.8" type="device">
  <diagram name="Страница — 1" id="c8mgP65YFB18-WXOBwFb">
    <mxGraphModel dx="745" dy="726" grid="1" gridSize="10" guides="1" tooltips="1" connect="1" arrows="1" fold="1" page="1" pageScale="1" pageWidth="827" pageHeight="1169" math="0" shadow="0">
      <root>
        <mxCell id="0" />
        <mxCell id="1" parent="0" />
        <mxCell id="Zpim2ylgm5uEZkzfW0Zh-1" value="Агроном" style="shape=umlActor;verticalLabelPosition=bottom;verticalAlign=top;html=1;outlineConnect=0;" vertex="1" parent="1">
          <mxGeometry x="190" y="450" width="30" height="60" as="geometry" />
        </mxCell>
        <mxCell id="Zpim2ylgm5uEZkzfW0Zh-4" value="Списковая форма доступных растений, грядок" style="rounded=0;whiteSpace=wrap;html=1;" vertex="1" parent="1">
          <mxGeometry x="320" y="470" width="140" height="50" as="geometry" />
        </mxCell>
        <mxCell id="Zpim2ylgm5uEZkzfW0Zh-6" value="Работник" style="shape=umlActor;verticalLabelPosition=bottom;verticalAlign=top;html=1;outlineConnect=0;" vertex="1" parent="1">
          <mxGeometry x="250" y="450" width="30" height="60" as="geometry" />
        </mxCell>
        <mxCell id="Zpim2ylgm5uEZkzfW0Zh-11" value="" style="endArrow=none;html=1;rounded=0;" edge="1" parent="1" source="Zpim2ylgm5uEZkzfW0Zh-24">
          <mxGeometry width="50" height="50" relative="1" as="geometry">
            <mxPoint x="204.76" y="840" as="sourcePoint" />
            <mxPoint x="205" y="530" as="targetPoint" />
          </mxGeometry>
        </mxCell>
        <mxCell id="Zpim2ylgm5uEZkzfW0Zh-12" value="" style="endArrow=none;html=1;rounded=0;" edge="1" parent="1">
          <mxGeometry width="50" height="50" relative="1" as="geometry">
            <mxPoint x="265" y="760" as="sourcePoint" />
            <mxPoint x="265" y="530" as="targetPoint" />
          </mxGeometry>
        </mxCell>
        <mxCell id="Zpim2ylgm5uEZkzfW0Zh-16" value="" style="endArrow=none;html=1;rounded=0;" edge="1" parent="1" source="Zpim2ylgm5uEZkzfW0Zh-21">
          <mxGeometry width="50" height="50" relative="1" as="geometry">
            <mxPoint x="390" y="840" as="sourcePoint" />
            <mxPoint x="390" y="520" as="targetPoint" />
          </mxGeometry>
        </mxCell>
        <mxCell id="Zpim2ylgm5uEZkzfW0Zh-17" value="" style="rounded=0;whiteSpace=wrap;html=1;" vertex="1" parent="1">
          <mxGeometry x="200" y="540" width="10" height="14" as="geometry" />
        </mxCell>
        <mxCell id="Zpim2ylgm5uEZkzfW0Zh-22" value="" style="endArrow=none;html=1;rounded=0;" edge="1" parent="1" target="Zpim2ylgm5uEZkzfW0Zh-21">
          <mxGeometry width="50" height="50" relative="1" as="geometry">
            <mxPoint x="390" y="760" as="sourcePoint" />
            <mxPoint x="389.65999999999997" y="470" as="targetPoint" />
          </mxGeometry>
        </mxCell>
        <mxCell id="Zpim2ylgm5uEZkzfW0Zh-21" value="" style="rounded=0;whiteSpace=wrap;html=1;" vertex="1" parent="1">
          <mxGeometry x="385" y="555" width="10" height="30" as="geometry" />
        </mxCell>
        <mxCell id="Zpim2ylgm5uEZkzfW0Zh-19" value="" style="endArrow=classic;html=1;rounded=0;exitX=0.5;exitY=1;exitDx=0;exitDy=0;" edge="1" parent="1" source="Zpim2ylgm5uEZkzfW0Zh-17">
          <mxGeometry width="50" height="50" relative="1" as="geometry">
            <mxPoint x="260" y="630" as="sourcePoint" />
            <mxPoint x="390" y="554" as="targetPoint" />
          </mxGeometry>
        </mxCell>
        <mxCell id="Zpim2ylgm5uEZkzfW0Zh-20" value="Получить список&lt;br&gt;растений, грядок" style="edgeLabel;html=1;align=center;verticalAlign=middle;resizable=0;points=[];" vertex="1" connectable="0" parent="Zpim2ylgm5uEZkzfW0Zh-19">
          <mxGeometry x="0.3281" y="1" relative="1" as="geometry">
            <mxPoint as="offset" />
          </mxGeometry>
        </mxCell>
        <mxCell id="Zpim2ylgm5uEZkzfW0Zh-23" value="" style="endArrow=block;dashed=1;endFill=0;endSize=12;html=1;rounded=0;exitX=0.5;exitY=1;exitDx=0;exitDy=0;entryX=1;entryY=0;entryDx=0;entryDy=0;" edge="1" parent="1" source="Zpim2ylgm5uEZkzfW0Zh-21" target="Zpim2ylgm5uEZkzfW0Zh-24">
          <mxGeometry width="160" relative="1" as="geometry">
            <mxPoint x="220" y="600" as="sourcePoint" />
            <mxPoint x="65" y="585" as="targetPoint" />
          </mxGeometry>
        </mxCell>
        <mxCell id="Zpim2ylgm5uEZkzfW0Zh-25" value="" style="endArrow=none;html=1;rounded=0;" edge="1" parent="1" source="Zpim2ylgm5uEZkzfW0Zh-36" target="Zpim2ylgm5uEZkzfW0Zh-24">
          <mxGeometry width="50" height="50" relative="1" as="geometry">
            <mxPoint x="204.76" y="840" as="sourcePoint" />
            <mxPoint x="204.76" y="520" as="targetPoint" />
          </mxGeometry>
        </mxCell>
        <mxCell id="Zpim2ylgm5uEZkzfW0Zh-24" value="" style="rounded=0;whiteSpace=wrap;html=1;" vertex="1" parent="1">
          <mxGeometry x="200" y="585" width="10" height="15" as="geometry" />
        </mxCell>
        <mxCell id="Zpim2ylgm5uEZkzfW0Zh-26" value="Списковая форма заказов" style="rounded=0;whiteSpace=wrap;html=1;" vertex="1" parent="1">
          <mxGeometry x="470" y="470" width="66" height="50" as="geometry" />
        </mxCell>
        <mxCell id="Zpim2ylgm5uEZkzfW0Zh-28" value="" style="endArrow=none;html=1;rounded=0;entryX=0.5;entryY=1;entryDx=0;entryDy=0;" edge="1" parent="1" target="Zpim2ylgm5uEZkzfW0Zh-26">
          <mxGeometry width="50" height="50" relative="1" as="geometry">
            <mxPoint x="503" y="760" as="sourcePoint" />
            <mxPoint x="502.76" y="470" as="targetPoint" />
          </mxGeometry>
        </mxCell>
        <mxCell id="Zpim2ylgm5uEZkzfW0Zh-30" value="" style="endArrow=block;dashed=1;endFill=0;endSize=12;html=1;rounded=0;exitX=0.5;exitY=1;exitDx=0;exitDy=0;entryX=1;entryY=0;entryDx=0;entryDy=0;" edge="1" parent="1" source="Zpim2ylgm5uEZkzfW0Zh-31" target="Zpim2ylgm5uEZkzfW0Zh-36">
          <mxGeometry width="160" relative="1" as="geometry">
            <mxPoint x="395" y="615" as="sourcePoint" />
            <mxPoint x="65" y="615" as="targetPoint" />
          </mxGeometry>
        </mxCell>
        <mxCell id="Zpim2ylgm5uEZkzfW0Zh-31" value="" style="rounded=0;whiteSpace=wrap;html=1;" vertex="1" parent="1">
          <mxGeometry x="498" y="600" width="10" height="15" as="geometry" />
        </mxCell>
        <mxCell id="Zpim2ylgm5uEZkzfW0Zh-29" value="" style="endArrow=classic;html=1;rounded=0;exitX=0.5;exitY=1;exitDx=0;exitDy=0;entryX=0.5;entryY=0;entryDx=0;entryDy=0;" edge="1" parent="1" source="Zpim2ylgm5uEZkzfW0Zh-24" target="Zpim2ylgm5uEZkzfW0Zh-31">
          <mxGeometry width="50" height="50" relative="1" as="geometry">
            <mxPoint x="310" y="630" as="sourcePoint" />
            <mxPoint x="503" y="615" as="targetPoint" />
          </mxGeometry>
        </mxCell>
        <mxCell id="Zpim2ylgm5uEZkzfW0Zh-32" value="" style="endArrow=block;dashed=1;endFill=0;endSize=12;html=1;rounded=0;exitX=0.5;exitY=1;exitDx=0;exitDy=0;" edge="1" parent="1" source="Zpim2ylgm5uEZkzfW0Zh-31">
          <mxGeometry width="160" relative="1" as="geometry">
            <mxPoint x="562" y="615" as="sourcePoint" />
            <mxPoint x="265" y="615" as="targetPoint" />
          </mxGeometry>
        </mxCell>
        <mxCell id="Zpim2ylgm5uEZkzfW0Zh-34" value="Форма редактирования заказов" style="rounded=0;whiteSpace=wrap;html=1;" vertex="1" parent="1">
          <mxGeometry x="550" y="470" width="110" height="50" as="geometry" />
        </mxCell>
        <mxCell id="Zpim2ylgm5uEZkzfW0Zh-35" value="" style="endArrow=none;html=1;rounded=0;entryX=0.5;entryY=1;entryDx=0;entryDy=0;" edge="1" parent="1" source="Zpim2ylgm5uEZkzfW0Zh-41" target="Zpim2ylgm5uEZkzfW0Zh-34">
          <mxGeometry width="50" height="50" relative="1" as="geometry">
            <mxPoint x="604.91" y="840" as="sourcePoint" />
            <mxPoint x="604.67" y="470" as="targetPoint" />
          </mxGeometry>
        </mxCell>
        <mxCell id="Zpim2ylgm5uEZkzfW0Zh-37" value="" style="endArrow=none;html=1;rounded=0;" edge="1" parent="1" target="Zpim2ylgm5uEZkzfW0Zh-36">
          <mxGeometry width="50" height="50" relative="1" as="geometry">
            <mxPoint x="205" y="700" as="sourcePoint" />
            <mxPoint x="205" y="600" as="targetPoint" />
          </mxGeometry>
        </mxCell>
        <mxCell id="Zpim2ylgm5uEZkzfW0Zh-36" value="" style="rounded=0;whiteSpace=wrap;html=1;" vertex="1" parent="1">
          <mxGeometry x="200" y="615" width="10" height="15" as="geometry" />
        </mxCell>
        <mxCell id="Zpim2ylgm5uEZkzfW0Zh-40" value="Заказ" style="rounded=0;whiteSpace=wrap;html=1;" vertex="1" parent="1">
          <mxGeometry x="660" y="630" width="50" height="30" as="geometry" />
        </mxCell>
        <mxCell id="Zpim2ylgm5uEZkzfW0Zh-42" value="" style="endArrow=none;html=1;rounded=0;" edge="1" parent="1" target="Zpim2ylgm5uEZkzfW0Zh-41">
          <mxGeometry width="50" height="50" relative="1" as="geometry">
            <mxPoint x="605" y="760" as="sourcePoint" />
            <mxPoint x="604.67" y="470" as="targetPoint" />
          </mxGeometry>
        </mxCell>
        <mxCell id="Zpim2ylgm5uEZkzfW0Zh-43" style="edgeStyle=orthogonalEdgeStyle;rounded=0;orthogonalLoop=1;jettySize=auto;html=1;exitX=0.5;exitY=1;exitDx=0;exitDy=0;entryX=0;entryY=0.5;entryDx=0;entryDy=0;" edge="1" parent="1" source="Zpim2ylgm5uEZkzfW0Zh-41" target="Zpim2ylgm5uEZkzfW0Zh-40">
          <mxGeometry relative="1" as="geometry">
            <Array as="points">
              <mxPoint x="620" y="645" />
              <mxPoint x="620" y="645" />
            </Array>
          </mxGeometry>
        </mxCell>
        <mxCell id="Zpim2ylgm5uEZkzfW0Zh-44" value="new" style="edgeLabel;html=1;align=center;verticalAlign=middle;resizable=0;points=[];" vertex="1" connectable="0" parent="Zpim2ylgm5uEZkzfW0Zh-43">
          <mxGeometry x="0.2196" relative="1" as="geometry">
            <mxPoint x="-5" as="offset" />
          </mxGeometry>
        </mxCell>
        <mxCell id="Zpim2ylgm5uEZkzfW0Zh-41" value="" style="rounded=0;whiteSpace=wrap;html=1;" vertex="1" parent="1">
          <mxGeometry x="600" y="630" width="10" height="15" as="geometry" />
        </mxCell>
        <mxCell id="Zpim2ylgm5uEZkzfW0Zh-38" value="" style="endArrow=classic;html=1;rounded=0;exitX=0.5;exitY=1;exitDx=0;exitDy=0;" edge="1" parent="1" source="Zpim2ylgm5uEZkzfW0Zh-36">
          <mxGeometry width="50" height="50" relative="1" as="geometry">
            <mxPoint x="330" y="640" as="sourcePoint" />
            <mxPoint x="605" y="630" as="targetPoint" />
          </mxGeometry>
        </mxCell>
        <mxCell id="Zpim2ylgm5uEZkzfW0Zh-39" value="Редактировать" style="edgeLabel;html=1;align=center;verticalAlign=middle;resizable=0;points=[];" vertex="1" connectable="0" parent="Zpim2ylgm5uEZkzfW0Zh-38">
          <mxGeometry x="0.7872" relative="1" as="geometry">
            <mxPoint x="-13" as="offset" />
          </mxGeometry>
        </mxCell>
        <mxCell id="Zpim2ylgm5uEZkzfW0Zh-45" value="" style="endArrow=none;html=1;rounded=0;" edge="1" parent="1">
          <mxGeometry width="50" height="50" relative="1" as="geometry">
            <mxPoint x="685" y="760" as="sourcePoint" />
            <mxPoint x="684.96" y="660" as="targetPoint" />
          </mxGeometry>
        </mxCell>
        <mxCell id="Zpim2ylgm5uEZkzfW0Zh-46" value="" style="endArrow=block;dashed=1;endFill=0;endSize=12;html=1;rounded=0;exitX=0;exitY=1;exitDx=0;exitDy=0;" edge="1" parent="1" source="Zpim2ylgm5uEZkzfW0Zh-47">
          <mxGeometry width="160" relative="1" as="geometry">
            <mxPoint x="695" y="679.31" as="sourcePoint" />
            <mxPoint x="205" y="679" as="targetPoint" />
          </mxGeometry>
        </mxCell>
        <mxCell id="Zpim2ylgm5uEZkzfW0Zh-47" value="" style="rounded=0;whiteSpace=wrap;html=1;" vertex="1" parent="1">
          <mxGeometry x="680" y="664" width="10" height="15" as="geometry" />
        </mxCell>
        <mxCell id="Zpim2ylgm5uEZkzfW0Zh-49" value="" style="endArrow=none;html=1;rounded=0;" edge="1" parent="1">
          <mxGeometry width="50" height="50" relative="1" as="geometry">
            <mxPoint x="205" y="760" as="sourcePoint" />
            <mxPoint x="204.98827361563508" y="693.9999999999998" as="targetPoint" />
          </mxGeometry>
        </mxCell>
        <mxCell id="Zpim2ylgm5uEZkzfW0Zh-50" value="Позиция заказа" style="rounded=0;whiteSpace=wrap;html=1;" vertex="1" parent="1">
          <mxGeometry x="740" y="679" width="60" height="30" as="geometry" />
        </mxCell>
        <mxCell id="Zpim2ylgm5uEZkzfW0Zh-51" style="edgeStyle=orthogonalEdgeStyle;rounded=0;orthogonalLoop=1;jettySize=auto;html=1;exitX=0.5;exitY=1;exitDx=0;exitDy=0;entryX=0;entryY=0.5;entryDx=0;entryDy=0;" edge="1" parent="1">
          <mxGeometry relative="1" as="geometry">
            <mxPoint x="685" y="694" as="sourcePoint" />
            <mxPoint x="740" y="694" as="targetPoint" />
            <Array as="points">
              <mxPoint x="700" y="694" />
              <mxPoint x="700" y="694" />
            </Array>
          </mxGeometry>
        </mxCell>
        <mxCell id="Zpim2ylgm5uEZkzfW0Zh-52" value="new" style="edgeLabel;html=1;align=center;verticalAlign=middle;resizable=0;points=[];" vertex="1" connectable="0" parent="Zpim2ylgm5uEZkzfW0Zh-51">
          <mxGeometry x="0.2196" relative="1" as="geometry">
            <mxPoint x="-5" as="offset" />
          </mxGeometry>
        </mxCell>
        <mxCell id="Zpim2ylgm5uEZkzfW0Zh-53" value="" style="endArrow=classic;html=1;rounded=0;exitX=0.5;exitY=1;exitDx=0;exitDy=0;" edge="1" parent="1">
          <mxGeometry width="50" height="50" relative="1" as="geometry">
            <mxPoint x="205" y="693.9999999999998" as="sourcePoint" />
            <mxPoint x="685" y="694" as="targetPoint" />
          </mxGeometry>
        </mxCell>
        <mxCell id="Zpim2ylgm5uEZkzfW0Zh-54" value="" style="endArrow=block;dashed=1;endFill=0;endSize=12;html=1;rounded=0;exitX=0;exitY=1;exitDx=0;exitDy=0;" edge="1" parent="1" source="Zpim2ylgm5uEZkzfW0Zh-55">
          <mxGeometry width="160" relative="1" as="geometry">
            <mxPoint x="690" y="780" as="sourcePoint" />
            <mxPoint x="265" y="727" as="targetPoint" />
          </mxGeometry>
        </mxCell>
        <mxCell id="Zpim2ylgm5uEZkzfW0Zh-56" value="" style="endArrow=none;html=1;rounded=0;" edge="1" parent="1">
          <mxGeometry width="50" height="50" relative="1" as="geometry">
            <mxPoint x="770" y="760" as="sourcePoint" />
            <mxPoint x="769.7" y="709" as="targetPoint" />
          </mxGeometry>
        </mxCell>
        <mxCell id="Zpim2ylgm5uEZkzfW0Zh-55" value="" style="rounded=0;whiteSpace=wrap;html=1;" vertex="1" parent="1">
          <mxGeometry x="765" y="712" width="10" height="15" as="geometry" />
        </mxCell>
        <mxCell id="Zpim2ylgm5uEZkzfW0Zh-57" value="" style="endArrow=block;dashed=1;endFill=0;endSize=12;html=1;rounded=0;exitX=0;exitY=1;exitDx=0;exitDy=0;" edge="1" parent="1">
          <mxGeometry width="160" relative="1" as="geometry">
            <mxPoint x="765" y="727" as="sourcePoint" />
            <mxPoint x="205" y="727" as="targetPoint" />
          </mxGeometry>
        </mxCell>
        <mxCell id="Zpim2ylgm5uEZkzfW0Zh-58" value="" style="endArrow=block;dashed=1;endFill=0;endSize=12;html=1;rounded=0;exitX=0;exitY=1;exitDx=0;exitDy=0;" edge="1" parent="1">
          <mxGeometry width="160" relative="1" as="geometry">
            <mxPoint x="765" y="727" as="sourcePoint" />
            <mxPoint x="503" y="727" as="targetPoint" />
          </mxGeometry>
        </mxCell>
        <mxCell id="Zpim2ylgm5uEZkzfW0Zh-59" value="" style="endArrow=block;dashed=1;endFill=0;endSize=12;html=1;rounded=0;exitX=0;exitY=1;exitDx=0;exitDy=0;" edge="1" parent="1">
          <mxGeometry width="160" relative="1" as="geometry">
            <mxPoint x="765" y="727" as="sourcePoint" />
            <mxPoint x="686" y="727" as="targetPoint" />
          </mxGeometry>
        </mxCell>
      </root>
    </mxGraphModel>
  </diagram>
</mxfile>
